<?xml version="1.0" standalone="no"?>
<!DOCTYPE svg PUBLIC "-//W3C//DTD SVG 20010904//EN"
 "http://www.w3.org/TR/2001/REC-SVG-20010904/DTD/svg10.dtd">
<svg version="1.0" xmlns="http://www.w3.org/2000/svg"
 width="402.000000pt" height="78.000000pt" viewBox="0 0 402.000000 78.000000"
 preserveAspectRatio="xMidYMid meet">
<metadata>
Created by potrace 1.10, written by Peter Selinger 2001-2011
</metadata>
<g transform="translate(0.000000,78.000000) scale(0.100000,-0.100000)"
fill="#000000" stroke="none">
<path d="M3273 628 c-54 -14 -104 -128 -55 -128 26 0 40 12 47 43 4 16 18 33
31 39 23 11 33 42 17 51 -5 2 -22 0 -40 -5z"/>
<path d="M124 622 c-49 -16 -76 -47 -81 -94 -5 -43 -3 -49 31 -81 20 -20 58
-46 84 -58 26 -12 57 -26 69 -32 13 -6 29 -20 38 -33 13 -20 13 -26 -2 -54 -9
-19 -30 -38 -51 -47 -32 -13 -39 -13 -74 3 -21 9 -43 23 -49 31 -6 7 -20 13
-31 13 -21 0 -38 -32 -20 -38 7 -2 18 -9 25 -16 6 -7 33 -23 59 -35 63 -32
123 -23 173 23 30 29 35 40 35 78 0 48 -27 89 -72 108 -13 6 -30 14 -38 19 -8
5 -34 18 -57 28 -74 32 -81 97 -13 132 l37 19 44 -21 c24 -12 48 -28 52 -34
11 -18 44 -16 51 2 12 32 -91 96 -152 94 -20 -1 -46 -4 -58 -7z"/>
<path d="M756 601 c-21 -22 -27 -36 -24 -62 4 -49 36 -46 63 5 11 22 26 41 33
44 7 2 12 12 12 23 0 31 -51 25 -84 -10z"/>
<path d="M1304 623 c-38 -7 -84 -56 -90 -94 -5 -32 -2 -41 32 -76 39 -39 112
-83 139 -83 8 0 15 -4 15 -8 0 -5 11 -15 24 -22 14 -7 27 -19 31 -28 10 -26
-32 -78 -74 -92 -37 -12 -41 -11 -86 19 -51 35 -73 39 -82 15 -6 -17 41 -63
65 -64 7 0 24 -7 38 -16 30 -20 93 -13 139 16 43 27 71 89 55 121 -18 34 -61
79 -77 79 -7 0 -13 4 -13 9 0 5 -10 13 -22 16 -47 14 -106 46 -112 61 -13 35
-5 63 23 83 40 29 75 26 128 -9 49 -33 71 -37 79 -15 7 16 -27 50 -61 61 -10
4 -25 13 -33 20 -13 13 -70 17 -118 7z"/>
<path d="M1873 613 c-4 -9 -2 -18 4 -20 52 -18 72 -85 53 -178 -22 -107 -23
-135 -6 -173 40 -88 135 -106 216 -42 24 19 40 39 38 49 -5 28 -45 24 -85 -8
-49 -38 -93 -46 -93 -16 0 8 -4 15 -9 15 -19 0 -21 57 -6 135 8 44 15 101 15
127 0 41 -5 52 -40 88 -41 42 -76 51 -87 23z"/>
<path d="M2894 616 c-3 -8 4 -24 15 -35 11 -11 24 -37 30 -57 9 -34 8 -41 -15
-71 -21 -28 -23 -34 -9 -39 13 -5 15 -21 13 -88 -2 -89 7 -113 59 -147 50 -33
105 -23 167 32 29 25 34 34 25 45 -14 18 -55 18 -66 1 -4 -7 -25 -23 -45 -36
l-37 -22 -20 20 c-22 22 -25 38 -22 136 2 45 7 64 22 77 23 20 24 34 4 42 -10
3 -15 19 -15 47 0 33 -6 47 -34 75 -36 36 -63 43 -72 20z"/>
<path d="M3422 478 c-37 -23 -72 -83 -72 -124 0 -60 31 -141 63 -165 64 -48
192 -17 216 53 29 83 -11 194 -85 237 -43 26 -79 25 -122 -1z m105 -55 c11
-10 28 -35 38 -56 46 -98 -13 -188 -93 -143 -57 31 -77 110 -48 181 13 30 20
35 49 35 19 0 43 -8 54 -17z"/>
<path d="M3800 479 c-14 -4 -38 -8 -55 -8 -20 -1 -36 -10 -49 -28 -19 -26 -19
-26 14 -124 32 -93 33 -99 17 -117 -20 -22 -13 -32 20 -32 52 0 70 65 36 132
-9 18 -21 42 -26 52 -8 16 -3 26 27 53 19 18 43 33 51 33 24 0 55 -37 56 -67
1 -16 3 -39 5 -53 2 -14 7 -44 10 -68 4 -31 14 -48 34 -62 15 -11 30 -17 34
-13 9 10 7 48 -3 58 -6 6 -13 44 -16 85 -5 59 -12 82 -32 110 -15 19 -28 37
-29 38 -7 10 -72 17 -94 11z"/>
<path d="M465 452 c-50 -36 -69 -58 -60 -72 11 -18 33 -11 70 22 42 36 84 41
115 13 l21 -19 -23 -18 c-13 -10 -40 -21 -60 -24 -21 -4 -38 -10 -38 -15 0 -4
-9 -11 -21 -14 -36 -12 -59 -43 -59 -79 0 -51 44 -80 119 -77 31 2 70 3 87 3
21 0 40 8 55 25 23 23 23 25 7 37 -15 11 -18 27 -16 100 1 73 -1 90 -19 114
-17 23 -28 27 -79 30 -53 2 -65 -1 -99 -26z m147 -157 c-4 -57 -24 -85 -59
-85 -33 0 -83 27 -83 45 0 20 48 65 69 65 10 0 24 7 31 15 7 9 20 14 29 13 13
-3 15 -14 13 -53z"/>
<path d="M1651 454 c-44 -37 -61 -80 -61 -152 0 -45 5 -67 23 -93 21 -32 27
-34 85 -37 38 -2 62 1 62 8 0 5 9 10 19 10 24 0 90 41 91 56 0 16 -36 24 -48
12 -19 -19 -109 -44 -130 -37 -22 8 -37 42 -27 59 3 5 19 10 34 10 54 0 151
65 151 101 0 5 -15 26 -33 45 -28 30 -42 37 -83 41 -44 5 -54 2 -83 -23z m105
-41 c36 -23 31 -55 -14 -75 -92 -43 -124 -19 -81 60 26 47 43 49 95 15z"/>
<path d="M2303 460 c-54 -36 -65 -63 -64 -152 1 -64 5 -85 23 -109 20 -27 27
-29 85 -29 35 0 63 4 63 10 0 6 7 10 16 10 23 0 94 43 94 58 0 21 -28 25 -54
8 -14 -9 -43 -22 -65 -30 -36 -12 -43 -12 -71 6 -21 12 -30 24 -26 34 3 9 6
18 6 20 0 2 15 4 34 4 59 0 146 57 146 97 0 12 -13 37 -28 54 -38 42 -111 51
-159 19z m95 -48 c29 -19 28 -41 -5 -69 -18 -16 -39 -23 -66 -23 l-39 0 7 38
c4 20 16 47 27 59 21 22 34 21 76 -5z"/>
<path d="M2665 459 c-58 -42 -70 -67 -70 -151 0 -75 2 -79 33 -110 29 -29 38
-33 83 -31 28 0 56 6 62 12 6 6 18 11 27 11 10 0 27 9 40 20 13 11 27 20 32
20 14 0 9 30 -6 36 -8 3 -28 -1 -43 -10 -80 -44 -99 -48 -131 -32 -22 11 -31
24 -35 53 -14 83 20 167 63 156 10 -3 33 -18 52 -34 60 -54 104 -18 50 41 -38
44 -112 53 -157 19z"/>
<path d="M733 454 c-9 -24 6 -123 23 -149 10 -16 15 -41 13 -75 -4 -66 12 -82
47 -49 23 21 25 29 20 73 -3 26 -10 54 -16 61 -18 22 -40 109 -30 119 6 6 10
16 10 23 0 19 -59 17 -67 -3z"/>
<path d="M3212 458 c-16 -16 -15 -90 2 -125 35 -70 39 -83 32 -122 -6 -37 -4
-41 14 -41 29 0 63 38 57 63 -8 34 -28 89 -45 121 -10 19 -12 42 -8 72 5 41 4
44 -17 44 -13 0 -28 -5 -35 -12z"/>
</g>
</svg>
